# xmcd CD database file
#
# Track frame offsets:
#	150
#	12922
#	25612
#	47272
#	61882
#	83050
#	101200
#	117837
#	133390
#	146045
#	154950
#	169507
#	185325
#	195760
#	211342
#	225797
#
# Disc length: 3192 seconds
#
# Revision: 0
# Processed by: cddbd v1.5PL3 Copyright (c) Steve Scherf et al.
# Submitted via: CDex 1.51
#
DISCID=c50c7610
DTITLE=Jonny Hill - Jonny Hill
DYEAR=1998
DGENRE=Country
TTITLE0=Green Green Grass Of Home
TTITLE1=Kann Liebe alles verzeihn
TTITLE2=Ruf Teddybär Eins-Vier
TTITLE3=Nur noch einmal nach Hause
TTITLE4=Papillon
TTITLE5=Mach's gut mein treuer Freund
TTITLE6=Rosen für Mama
TTITLE7=Lucille
TTITLE8=Freunde
TTITLE9=Ein Ring aus Feuer
TTITLE10=Ein Glas Wein und noch eins
TTITLE11=Ich möcht so gern Dave Dudley hör'n
TTITLE12=König der Landstrasße
TTITLE13=Wieviel braucht man zum Glücklichsein
TTITLE14=Wenn der Briefträger klingelt
TTITLE15=Jetzt sag ich euch Gute Nacht
EXTD=YEAR: 1998
EXTT0=
EXTT1=
EXTT2=
EXTT3=
EXTT4=
EXTT5=
EXTT6=
EXTT7=
EXTT8=
EXTT9=
EXTT10=
EXTT11=
EXTT12=
EXTT13=
EXTT14=
EXTT15=
PLAYORDER=
